<?xml version="1.0" encoding="UTF-8"?>
<!DOCTYPE svg PUBLIC "-//W3C//DTD SVG 1.1//EN" "http://www.w3.org/Graphics/SVG/1.1/DTD/svg11.dtd">
<svg xmlns="http://www.w3.org/2000/svg" version="1.1" width="1800px" height="473px" style="shape-rendering:geometricPrecision; text-rendering:geometricPrecision; image-rendering:optimizeQuality; fill-rule:evenodd; clip-rule:evenodd" xmlns:xlink="http://www.w3.org/1999/xlink">
<g><path style="opacity:0.972" fill="#e59a00" d="M 207.5,-0.5 C 208.167,-0.5 208.833,-0.5 209.5,-0.5C 275.771,37.3062 342.104,75.1395 408.5,113C 391.897,123.219 375.063,133.052 358,142.5C 308.584,114.082 259.417,85.2482 210.5,56C 209.5,55.3333 208.5,55.3333 207.5,56C 176,75.5844 144.333,94.9177 112.5,114C 161.167,142.667 209.833,171.333 258.5,200C 241.998,210.085 225.331,219.919 208.5,229.5C 141.576,191.9 74.9095,153.9 8.5,115.5C 10.4311,113.196 12.7644,111.362 15.5,110C 79.726,73.3925 143.726,36.5591 207.5,-0.5 Z"/></g>
<g><path style="opacity:0.982" fill="#4378a4" d="M 217.5,472.5 C 217.167,472.5 216.833,472.5 216.5,472.5C 216.333,395.499 216.5,318.499 217,241.5C 233.418,231.707 249.918,222.041 266.5,212.5C 267.167,247.833 267.833,283.167 268.5,318.5C 300.914,299.878 333.081,280.878 365,261.5C 365.333,226.5 365.667,191.5 366,156.5C 382.75,146.208 399.584,136.041 416.5,126C 417.332,125.312 417.998,125.479 418.5,126.5C 420.148,202.457 420.981,278.457 421,354.5C 402.806,365.51 384.306,375.844 365.5,385.5C 365.667,364.164 365.5,342.831 365,321.5C 333.249,340.293 301.416,358.959 269.5,377.5C 268.833,399.833 268.167,422.167 267.5,444.5C 250.771,453.861 234.104,463.194 217.5,472.5 Z"/></g>
<g><path style="opacity:0.98" fill="#e52128" d="M -0.5,354.5 C -0.5,346.5 -0.5,338.5 -0.5,330.5C 0.568695,262.668 1.40203,194.668 2,126.5C 68.4183,164.96 134.918,203.293 201.5,241.5C 202.833,318.167 202.833,394.833 201.5,471.5C 184.251,461.626 167.085,451.626 150,441.5C 149.833,420.492 149.333,399.492 148.5,378.5C 116.167,359.833 83.8333,341.167 51.5,322.5C 50.6669,342.825 50.1669,363.158 50,383.5C 33.3839,373.442 16.5506,363.776 -0.5,354.5 Z M 52.5,215.5 C 85.0546,234.362 117.555,253.362 150,272.5C 150.833,288.51 150.666,304.51 149.5,320.5C 117.416,301.374 85.2491,282.374 53,263.5C 52.5001,247.503 52.3334,231.503 52.5,215.5 Z"/></g>
<g><path style="opacity:0.949" fill="#322c2a" d="M 471.5,133.5 C 479.196,133.169 486.862,133.503 494.5,134.5C 508.062,162.623 521.895,190.623 536,218.5C 550.527,190.779 564.527,162.779 578,134.5C 585.747,133.518 593.58,133.185 601.5,133.5C 601.5,169.833 601.5,206.167 601.5,242.5C 593.833,242.5 586.167,242.5 578.5,242.5C 578.667,223.164 578.5,203.83 578,184.5C 568.833,203.5 559.667,222.5 550.5,241.5C 540.94,242.817 531.44,242.817 522,241.5C 512.667,222.167 503.333,202.833 494,183.5C 493.5,203.164 493.333,222.831 493.5,242.5C 486.167,242.5 478.833,242.5 471.5,242.5C 471.5,206.167 471.5,169.833 471.5,133.5 Z"/></g>
<g><path style="opacity:0.945" fill="#322c2a" d="M 633.5,133.5 C 658.836,133.333 684.169,133.5 709.5,134C 718.279,137.775 723.779,144.275 726,153.5C 726.5,183.165 726.667,212.831 726.5,242.5C 718.833,242.5 711.167,242.5 703.5,242.5C 703.5,228.167 703.5,213.833 703.5,199.5C 682.5,199.5 661.5,199.5 640.5,199.5C 640.5,213.833 640.5,228.167 640.5,242.5C 632.833,242.5 625.167,242.5 617.5,242.5C 617.333,212.831 617.5,183.165 618,153.5C 618.923,143.424 624.09,136.757 633.5,133.5 Z M 640.5,155.5 C 661.5,155.5 682.5,155.5 703.5,155.5C 703.5,162.5 703.5,169.5 703.5,176.5C 682.5,176.5 661.5,176.5 640.5,176.5C 640.5,169.5 640.5,162.5 640.5,155.5 Z"/></g>
<g><path style="opacity:0.95" fill="#322c2a" d="M 743.5,133.5 C 748.511,133.334 753.511,133.501 758.5,134C 781.667,156.5 804.833,179 828,201.5C 828.5,178.836 828.667,156.169 828.5,133.5C 836.167,133.5 843.833,133.5 851.5,133.5C 851.5,169.833 851.5,206.167 851.5,242.5C 846.489,242.666 841.489,242.499 836.5,242C 813,219.167 789.5,196.333 766,173.5C 765.5,196.498 765.333,219.498 765.5,242.5C 758.167,242.5 750.833,242.5 743.5,242.5C 743.5,206.167 743.5,169.833 743.5,133.5 Z"/></g>
<g><path style="opacity:0.958" fill="#322c2a" d="M 870.5,133.5 C 878.167,133.5 885.833,133.5 893.5,133.5C 893.5,162.5 893.5,191.5 893.5,220.5C 914.5,220.5 935.5,220.5 956.5,220.5C 956.5,191.5 956.5,162.5 956.5,133.5C 963.833,133.5 971.167,133.5 978.5,133.5C 978.978,165.896 978.478,198.229 977,230.5C 974.341,236.492 969.841,240.325 963.5,242C 938.167,242.667 912.833,242.667 887.5,242C 877.799,239.63 872.299,233.463 871,223.5C 870.5,193.502 870.333,163.502 870.5,133.5 Z"/></g>
<g><path style="opacity:0.948" fill="#322c2a" d="M 998.5,133.5 C 1027.5,133.5 1056.5,133.5 1085.5,133.5C 1085.5,140.833 1085.5,148.167 1085.5,155.5C 1064.17,155.5 1042.83,155.5 1021.5,155.5C 1021.5,162.5 1021.5,169.5 1021.5,176.5C 1042.83,176.5 1064.17,176.5 1085.5,176.5C 1085.5,184.167 1085.5,191.833 1085.5,199.5C 1064.17,199.5 1042.83,199.5 1021.5,199.5C 1021.5,213.833 1021.5,228.167 1021.5,242.5C 1013.83,242.5 1006.17,242.5 998.5,242.5C 998.5,206.167 998.5,169.833 998.5,133.5 Z"/></g>
<g><path style="opacity:0.963" fill="#322c2a" d="M 1117.5,133.5 C 1142.84,133.333 1168.17,133.5 1193.5,134C 1202.1,136.929 1207.6,142.763 1210,151.5C 1210.5,181.832 1210.67,212.165 1210.5,242.5C 1203.17,242.5 1195.83,242.5 1188.5,242.5C 1188.5,228.167 1188.5,213.833 1188.5,199.5C 1167.17,199.5 1145.83,199.5 1124.5,199.5C 1124.5,213.833 1124.5,228.167 1124.5,242.5C 1117.17,242.5 1109.83,242.5 1102.5,242.5C 1102.33,211.498 1102.5,180.498 1103,149.5C 1104.95,141.393 1109.78,136.06 1117.5,133.5 Z M 1124.5,155.5 C 1145.83,155.5 1167.17,155.5 1188.5,155.5C 1188.5,162.5 1188.5,169.5 1188.5,176.5C 1167.17,176.5 1145.83,176.5 1124.5,176.5C 1124.5,169.5 1124.5,162.5 1124.5,155.5 Z"/></g>
<g><path style="opacity:0.972" fill="#322c2a" d="M 1247.5,133.5 C 1276.83,133.5 1306.17,133.5 1335.5,133.5C 1335.5,140.833 1335.5,148.167 1335.5,155.5C 1308.17,155.5 1280.83,155.5 1253.5,155.5C 1253.5,177.167 1253.5,198.833 1253.5,220.5C 1280.83,220.5 1308.17,220.5 1335.5,220.5C 1335.5,227.833 1335.5,235.167 1335.5,242.5C 1305.83,242.667 1276.16,242.5 1246.5,242C 1238.78,240.614 1233.95,236.114 1232,228.5C 1231.33,202.167 1231.33,175.833 1232,149.5C 1234.69,141.65 1239.85,136.316 1247.5,133.5 Z"/></g>
<g><path style="opacity:0.972" fill="#322c2a" d="M 1340.5,133.5 C 1376.5,133.5 1412.5,133.5 1448.5,133.5C 1448.5,140.833 1448.5,148.167 1448.5,155.5C 1434.17,155.5 1419.83,155.5 1405.5,155.5C 1405.5,184.5 1405.5,213.5 1405.5,242.5C 1398.17,242.5 1390.83,242.5 1383.5,242.5C 1383.5,213.5 1383.5,184.5 1383.5,155.5C 1369.17,155.5 1354.83,155.5 1340.5,155.5C 1340.5,148.167 1340.5,140.833 1340.5,133.5 Z"/></g>
<g><path style="opacity:0.957" fill="#322c2a" d="M 1464.5,133.5 C 1472.17,133.5 1479.83,133.5 1487.5,133.5C 1487.5,162.5 1487.5,191.5 1487.5,220.5C 1508.5,220.5 1529.5,220.5 1550.5,220.5C 1550.5,191.5 1550.5,162.5 1550.5,133.5C 1557.83,133.5 1565.17,133.5 1572.5,133.5C 1572.98,165.896 1572.48,198.229 1571,230.5C 1568.15,236.84 1563.32,240.674 1556.5,242C 1531.17,242.667 1505.83,242.667 1480.5,242C 1473.82,239.987 1468.99,235.82 1466,229.5C 1464.53,197.549 1464.03,165.549 1464.5,133.5 Z"/></g>
<g><path style="opacity:0.96" fill="#322c2a" d="M 1589.5,133.5 C 1618.84,133.333 1648.17,133.5 1677.5,134C 1683.8,135.963 1688.63,139.797 1692,145.5C 1693.61,158.764 1693.94,172.097 1693,185.5C 1690.71,193.897 1685.21,198.397 1676.5,199C 1667.17,199.333 1657.83,199.667 1648.5,200C 1665.02,213.763 1681.35,227.763 1697.5,242C 1686.17,242.667 1674.83,242.667 1663.5,242C 1647.5,228 1631.5,214 1615.5,200C 1614.21,199.51 1612.87,199.343 1611.5,199.5C 1611.5,213.833 1611.5,228.167 1611.5,242.5C 1604.17,242.5 1596.83,242.5 1589.5,242.5C 1589.5,206.167 1589.5,169.833 1589.5,133.5 Z M 1611.5,155.5 C 1631.5,155.5 1651.5,155.5 1671.5,155.5C 1671.5,162.5 1671.5,169.5 1671.5,176.5C 1651.5,176.5 1631.5,176.5 1611.5,176.5C 1611.5,169.5 1611.5,162.5 1611.5,155.5 Z"/></g>
<g><path style="opacity:0.956" fill="#322c2a" d="M 1799.5,133.5 C 1799.5,140.833 1799.5,148.167 1799.5,155.5C 1778.17,155.5 1756.83,155.5 1735.5,155.5C 1735.5,162.5 1735.5,169.5 1735.5,176.5C 1756.83,176.5 1778.17,176.5 1799.5,176.5C 1799.5,184.167 1799.5,191.833 1799.5,199.5C 1778.17,199.5 1756.83,199.5 1735.5,199.5C 1735.5,206.5 1735.5,213.5 1735.5,220.5C 1756.83,220.5 1778.17,220.5 1799.5,220.5C 1799.5,227.833 1799.5,235.167 1799.5,242.5C 1770.5,242.5 1741.5,242.5 1712.5,242.5C 1712.5,206.167 1712.5,169.833 1712.5,133.5C 1741.5,133.5 1770.5,133.5 1799.5,133.5 Z"/></g>
<g><path style="opacity:0.906" fill="#a0a1a0" d="M 1033.5,280.5 C 1047.47,280.95 1051.97,287.616 1047,300.5C 1041.73,305.245 1035.56,306.745 1028.5,305C 1021.49,300.902 1019.66,295.069 1023,287.5C 1025.7,283.748 1029.2,281.415 1033.5,280.5 Z"/></g>
<g><path style="opacity:0.938" fill="#a0a1a0" d="M 882.5,282.5 C 890.5,282.5 898.5,282.5 906.5,282.5C 902.196,307.523 897.696,332.523 893,357.5C 885.106,359.449 876.939,360.116 868.5,359.5C 872.632,333.707 877.298,308.04 882.5,282.5 Z"/></g>
<g><path style="opacity:0.939" fill="#a0a1a0" d="M 1387.5,282.5 C 1395.83,282.5 1404.17,282.5 1412.5,282.5C 1410.54,292.14 1409.04,301.806 1408,311.5C 1414.04,306.769 1420.87,305.269 1428.5,307C 1433.23,309.404 1436.07,313.237 1437,318.5C 1436.02,332.251 1434.18,345.918 1431.5,359.5C 1423.17,359.5 1414.83,359.5 1406.5,359.5C 1407.91,349.468 1409.57,339.468 1411.5,329.5C 1411.38,327.448 1410.38,326.115 1408.5,325.5C 1406.47,326.693 1404.97,328.36 1404,330.5C 1401.95,340.136 1400.12,349.803 1398.5,359.5C 1390.17,359.5 1381.83,359.5 1373.5,359.5C 1378.17,333.833 1382.83,308.167 1387.5,282.5 Z"/></g>
<g><path style="opacity:0.938" fill="#a0a1a0" d="M 1582.5,282.5 C 1590.5,282.5 1598.5,282.5 1606.5,282.5C 1602.22,307.526 1597.72,332.526 1593,357.5C 1585.11,359.449 1576.94,360.116 1568.5,359.5C 1572.66,333.709 1577.33,308.043 1582.5,282.5 Z"/></g>
<g><path style="opacity:0.943" fill="#a0a1a0" d="M 774.5,285.5 C 782.571,285.137 790.571,285.637 798.5,287C 803.592,288.2 807.592,290.867 810.5,295C 807.553,301.062 804.22,306.895 800.5,312.5C 797.301,310.136 793.968,307.97 790.5,306C 788.167,305.333 785.833,305.333 783.5,306C 782.273,307.587 782.606,308.921 784.5,310C 791.934,312.795 798.434,316.962 804,322.5C 810.604,341.791 804.104,354.291 784.5,360C 772.763,361.982 761.763,359.982 751.5,354C 748.359,352.114 745.692,349.78 743.5,347C 747.656,340.682 751.99,334.516 756.5,328.5C 760.132,332.633 764.465,335.8 769.5,338C 772.76,338.784 775.927,338.617 779,337.5C 779.089,335.887 778.255,334.72 776.5,334C 755.049,327.283 749.549,314.116 760,294.5C 764.343,290.585 769.177,287.585 774.5,285.5 Z"/></g>
<g><path style="opacity:0.937" fill="#a0a1a0" d="M 474.5,286.5 C 484.5,286.5 494.5,286.5 504.5,286.5C 506.094,292.12 507.594,297.787 509,303.5C 512.5,298 516,292.5 519.5,287C 530.182,286.168 540.849,286.334 551.5,287.5C 541.576,301.013 531.409,314.347 521,327.5C 517.653,337.915 515.486,348.581 514.5,359.5C 505.143,359.832 495.81,359.498 486.5,358.5C 488.5,348.833 490.5,339.167 492.5,329.5C 486.212,315.26 480.212,300.927 474.5,286.5 Z"/></g>
<g><path style="opacity:0.94" fill="#a0a1a0" d="M 1216.5,286.5 C 1235.84,286.333 1255.17,286.5 1274.5,287C 1272.59,294.371 1271.26,301.871 1270.5,309.5C 1265.24,309.195 1260.07,309.529 1255,310.5C 1251.84,326.792 1249.01,343.125 1246.5,359.5C 1237.14,359.832 1227.81,359.498 1218.5,358.5C 1221.89,342.239 1224.89,325.905 1227.5,309.5C 1222.46,309.827 1217.46,309.494 1212.5,308.5C 1214.22,301.238 1215.55,293.905 1216.5,286.5 Z"/></g>
<g><path style="opacity:0.937" fill="#a0a1a0" d="M 983.5,293.5 C 991.833,293.5 1000.17,293.5 1008.5,293.5C 1007.83,298.167 1007.17,302.833 1006.5,307.5C 1008.83,307.5 1011.17,307.5 1013.5,307.5C 1012.18,313.778 1011.18,320.112 1010.5,326.5C 1007.83,326.5 1005.17,326.5 1002.5,326.5C 1000.72,337.209 998.715,347.876 996.5,358.5C 988.167,359.833 979.833,359.833 971.5,358.5C 973.931,347.916 975.931,337.249 977.5,326.5C 975.5,326.5 973.5,326.5 971.5,326.5C 972.824,320.222 973.824,313.888 974.5,307.5C 976.833,307.5 979.167,307.5 981.5,307.5C 982.296,302.853 982.963,298.186 983.5,293.5 Z"/></g>
<g><path style="opacity:0.949" fill="#a0a1a0" d="M 563.5,306.5 C 586.66,303.505 597.827,313.505 597,336.5C 590.034,357.236 575.867,364.736 554.5,359C 541.92,352.643 537.42,342.476 541,328.5C 544.455,316.876 551.955,309.543 563.5,306.5 Z M 567.5,327.5 C 573.178,327.157 575.344,329.824 574,335.5C 571.451,339.925 568.118,340.592 564,337.5C 562.756,333.191 563.923,329.858 567.5,327.5 Z"/></g>
<g><path style="opacity:0.93" fill="#a0a1a0" d="M 702.5,306.5 C 706.5,306.5 710.5,306.5 714.5,306.5C 713.501,313.831 712.501,321.164 711.5,328.5C 708.512,327.839 705.512,327.172 702.5,326.5C 699.889,326.556 697.722,327.556 696,329.5C 693.084,339.323 690.918,349.323 689.5,359.5C 681.167,359.5 672.833,359.5 664.5,359.5C 667.728,342.525 670.895,325.525 674,308.5C 681.413,307.519 688.913,307.186 696.5,307.5C 696.351,308.552 696.517,309.552 697,310.5C 699.015,309.303 700.849,307.97 702.5,306.5 Z"/></g>
<g><path style="opacity:0.946" fill="#a0a1a0" d="M 830.5,306.5 C 860.625,304.78 870.792,318.113 861,346.5C 851.199,359.655 838.365,363.822 822.5,359C 812.647,354.809 807.647,347.309 807.5,336.5C 808.448,321.24 816.115,311.24 830.5,306.5 Z M 834.5,327.5 C 838.807,326.649 841.474,328.316 842.5,332.5C 841.608,338.445 838.275,340.612 832.5,339C 830.32,334.843 830.987,331.01 834.5,327.5 Z"/></g>
<g><path style="opacity:0.951" fill="#a0a1a0" d="M 1071.5,306.5 C 1083.66,304.165 1093.83,307.498 1102,316.5C 1109.98,337.562 1103.48,352.062 1082.5,360C 1071.85,362.333 1062.35,360.166 1054,353.5C 1044.72,337.197 1047.22,323.03 1061.5,311C 1064.89,309.38 1068.23,307.88 1071.5,306.5 Z M 1075.5,327.5 C 1081.5,327.002 1083.67,329.669 1082,335.5C 1079.45,339.925 1076.12,340.592 1072,337.5C 1070.76,333.191 1071.92,329.858 1075.5,327.5 Z"/></g>
<g><path style="opacity:0.934" fill="#a0a1a0" d="M 1149.5,306.5 C 1162.57,303.757 1169.9,308.924 1171.5,322C 1169.44,334.502 1167.44,347.002 1165.5,359.5C 1157.17,359.5 1148.83,359.5 1140.5,359.5C 1141.68,349.597 1143.34,339.764 1145.5,330C 1144.36,324.842 1142.19,324.342 1139,328.5C 1135.98,338.637 1133.81,348.97 1132.5,359.5C 1124.17,359.5 1115.83,359.5 1107.5,359.5C 1110.72,342.204 1113.72,324.87 1116.5,307.5C 1124.5,307.5 1132.5,307.5 1140.5,307.5C 1139.95,309.331 1139.95,310.997 1140.5,312.5C 1143.39,310.228 1146.39,308.228 1149.5,306.5 Z"/></g>
<g><path style="opacity:0.94" fill="#a0a1a0" d="M 1290.5,306.5 C 1302.38,304.107 1312.55,307.107 1321,315.5C 1324.77,322.095 1325.93,329.095 1324.5,336.5C 1313.5,336.5 1302.5,336.5 1291.5,336.5C 1291.32,342.157 1293.99,344.324 1299.5,343C 1301.24,341.659 1303.08,340.492 1305,339.5C 1311.04,340.467 1316.87,341.967 1322.5,344C 1311.65,360.717 1296.99,365.05 1278.5,357C 1268.13,347.735 1265.63,336.569 1271,323.5C 1275.4,315.389 1281.9,309.722 1290.5,306.5 Z M 1296.5,321.5 C 1300.85,320.533 1303.18,322.2 1303.5,326.5C 1299.82,326.665 1296.15,326.499 1292.5,326C 1294.04,324.629 1295.37,323.129 1296.5,321.5 Z"/></g>
<g><path style="opacity:0.939" fill="#a0a1a0" d="M 1351.5,306.5 C 1357.18,306.334 1362.84,306.501 1368.5,307C 1370.63,307.543 1372.63,308.376 1374.5,309.5C 1373.14,315.449 1371.98,321.449 1371,327.5C 1370.59,327.957 1370.09,328.291 1369.5,328.5C 1361.79,323.681 1356.45,325.515 1353.5,334C 1355.89,341.192 1360.56,343.026 1367.5,339.5C 1367.83,340 1368.17,340.5 1368.5,341C 1367.12,347.11 1366.12,353.276 1365.5,359.5C 1357.78,360.963 1350.11,360.796 1342.5,359C 1333.41,354.341 1328.75,346.841 1328.5,336.5C 1329.49,321.198 1337.16,311.198 1351.5,306.5 Z"/></g>
<g><path style="opacity:0.935" fill="#a0a1a0" d="M 1481.5,306.5 C 1497.25,304.085 1504.42,310.752 1503,326.5C 1500.97,337.479 1499.14,348.479 1497.5,359.5C 1489.17,359.5 1480.83,359.5 1472.5,359.5C 1473.91,349.468 1475.57,339.468 1477.5,329.5C 1477.38,327.448 1476.38,326.115 1474.5,325.5C 1472.47,326.693 1470.97,328.36 1470,330.5C 1467.73,340.096 1465.9,349.762 1464.5,359.5C 1456.17,359.5 1447.83,359.5 1439.5,359.5C 1442.47,342.477 1445.64,325.477 1449,308.5C 1456.75,307.518 1464.58,307.185 1472.5,307.5C 1471.99,309.512 1471.82,311.512 1472,313.5C 1474.79,310.535 1477.96,308.202 1481.5,306.5 Z"/></g>
<g><path style="opacity:0.946" fill="#a0a1a0" d="M 1531.5,306.5 C 1543.06,304.188 1552.89,307.188 1561,315.5C 1568.27,330.494 1565.77,343.66 1553.5,355C 1541.33,361.912 1529,362.246 1516.5,356C 1505.4,343.927 1504.57,331.094 1514,317.5C 1518.88,312.152 1524.71,308.486 1531.5,306.5 Z M 1534.5,327.5 C 1540.45,326.283 1542.95,328.617 1542,334.5C 1539.79,339.639 1536.45,340.639 1532,337.5C 1531.02,333.673 1531.86,330.34 1534.5,327.5 Z"/></g>
<g><path style="opacity:0.946" fill="#a0a1a0" d="M 1628.5,306.5 C 1640.06,304.188 1649.89,307.188 1658,315.5C 1665.27,330.494 1662.77,343.66 1650.5,355C 1638.33,361.912 1626,362.246 1613.5,356C 1602.4,343.927 1601.57,331.094 1611,317.5C 1615.88,312.152 1621.71,308.486 1628.5,306.5 Z M 1631.5,327.5 C 1637.45,326.283 1639.95,328.617 1639,334.5C 1636.79,339.639 1633.45,340.639 1629,337.5C 1628.02,333.673 1628.86,330.34 1631.5,327.5 Z"/></g>
<g><path style="opacity:0.943" fill="#a0a1a0" d="M 1686.5,306.5 C 1694.3,305.023 1700.97,307.023 1706.5,312.5C 1707.45,310.955 1707.79,309.288 1707.5,307.5C 1715.5,307.5 1723.5,307.5 1731.5,307.5C 1728.83,327.503 1724.67,347.169 1719,366.5C 1712.12,376.359 1702.62,381.025 1690.5,380.5C 1681.79,380.795 1673.79,378.628 1666.5,374C 1669.17,369.333 1671.83,364.667 1674.5,360C 1677.5,360.646 1680.5,361.646 1683.5,363C 1691.26,364.622 1696.59,361.789 1699.5,354.5C 1699.33,354.167 1699.17,353.833 1699,353.5C 1689.15,360.415 1679.81,359.749 1671,351.5C 1664.78,337.923 1666.45,325.256 1676,313.5C 1679.34,310.759 1682.84,308.426 1686.5,306.5 Z M 1697.5,326.5 C 1702.75,328.073 1704.25,331.407 1702,336.5C 1697.16,341.082 1693.66,340.249 1691.5,334C 1692.24,330.282 1694.24,327.782 1697.5,326.5 Z"/></g>
<g><path style="opacity:0.943" fill="#a0a1a0" d="M 608.5,307.5 C 616.5,307.5 624.5,307.5 632.5,307.5C 631.331,316.348 629.998,325.181 628.5,334C 628.971,339.826 631.138,340.659 635,336.5C 637.285,326.91 639.118,317.244 640.5,307.5C 648.5,307.5 656.5,307.5 664.5,307.5C 663.347,322.432 659.847,336.765 654,350.5C 647.697,358.216 639.53,361.55 629.5,360.5C 608.955,360.786 600.455,350.786 604,330.5C 605.291,322.748 606.791,315.082 608.5,307.5 Z"/></g>
<g><path style="opacity:0.944" fill="#a0a1a0" d="M 911.5,307.5 C 919.5,307.5 927.5,307.5 935.5,307.5C 934.493,316.372 933.159,325.205 931.5,334C 931.639,339.021 933.639,340.188 937.5,337.5C 940.36,327.676 942.36,317.676 943.5,307.5C 951.5,307.5 959.5,307.5 967.5,307.5C 966.348,322.432 962.848,336.766 957,350.5C 950.838,358.113 942.838,361.446 933,360.5C 912.222,361.053 903.555,351.053 907,330.5C 908.311,322.777 909.811,315.11 911.5,307.5 Z"/></g>
<g><path style="opacity:0.927" fill="#a0a1a0" d="M 1020.5,307.5 C 1028.83,307.5 1037.17,307.5 1045.5,307.5C 1042.28,324.795 1039.28,342.129 1036.5,359.5C 1028.17,359.5 1019.83,359.5 1011.5,359.5C 1014.28,342.13 1017.28,324.796 1020.5,307.5 Z"/></g>
<g><path style="opacity:0.938" fill="#a0a1a0" d="M 1734.5,307.5 C 1742.5,307.5 1750.5,307.5 1758.5,307.5C 1759.09,313.606 1760.25,319.606 1762,325.5C 1764.43,319.468 1767.27,313.634 1770.5,308C 1779.19,307.168 1787.85,307.335 1796.5,308.5C 1782.5,332.167 1768.5,355.833 1754.5,379.5C 1745.18,380.665 1735.85,380.832 1726.5,380C 1732.85,369.656 1739.18,359.323 1745.5,349C 1741.44,335.25 1737.77,321.416 1734.5,307.5 Z"/></g>
</svg>
